<svg xmlns="http://www.w3.org/2000/svg" width="32" height="32" viewBox="0 0 8.467 8.467"><g transform="translate(718.023 -277.467)"><path d="m -715.48242,278.98242 c -0.10238,0.001 -0.18803,0.0494 -0.25196,0.10547 -0.0639,0.056 -0.11148,0.1225 -0.14648,0.1875 -0.0742,0.13798 -0.079,0.30255 -0.0801,0.44336 -10e-4,0.14081 0.0117,0.25586 0.0117,0.25586 a 0.13254183,0.13254183 0 1 0 0.26367,-0.0273 c 0,0 -0.0107,-0.10192 -0.01,-0.22657 9.2e-4,-0.12464 0.0224,-0.27283 0.0469,-0.31836 0.0219,-0.0407 0.0568,-0.0863 0.0899,-0.11523 0.033,-0.029 0.0604,-0.0389 0.0781,-0.0391 -0.0427,4.2e-4 0.002,0.007 0.0371,0.0449 0.0177,0.0189 0.035,0.0403 0.0547,0.0605 0.01,0.0101 0.0183,0.0192 0.0391,0.0332 0.0104,0.007 0.0255,0.0172 0.0527,0.0234 0.007,0.002 0.021,0.004 0.0215,0.004 4.5e-4,3e-5 0.0289,-0.002 0.0293,-0.002 8.2e-4,-1.2e-4 0.0618,-0.0249 0.0625,-0.0254 0.0231,-0.0173 0.0269,-0.0235 0.043,-0.0371 0.016,-0.0136 0.0344,-0.0287 0.0547,-0.043 0.0405,-0.0285 0.0872,-0.0369 0.0684,-0.0391 0.026,0.003 0.0963,0.0659 0.12305,0.1289 0.0199,0.0469 0.0264,0.1995 0.0117,0.32618 -0.0147,0.12667 -0.0391,0.23047 -0.0391,0.23046 a 0.1323049,0.1323049 0 1 0 0.25586,0.0605 c 0,0 0.0283,-0.11811 0.0449,-0.26172 0.0167,-0.1436 0.034,-0.3097 -0.0293,-0.45898 -0.0537,-0.12664 -0.15709,-0.26616 -0.33594,-0.28711 -0.11756,-0.0137 -0.19183,0.0417 -0.25195,0.084 -0.009,0.006 -0.0135,0.0115 -0.0215,0.0176 -0.0445,-0.0493 -0.0944,-0.12628 -0.22265,-0.125 z" color="#000" font-family="sans-serif" font-weight="400" overflow="visible" white-space="normal" style="line-height:normal;font-variant-ligatures:normal;font-variant-position:normal;font-variant-caps:normal;font-variant-numeric:normal;font-variant-alternates:normal;font-feature-settings:normal;text-indent:0;text-align:start;text-decoration-line:none;text-decoration-style:solid;text-decoration-color:#000;text-transform:none;text-orientation:mixed;shape-padding:0;isolation:auto;mix-blend-mode:normal"/><path d="M-715.26953 279.13086a.1323049.1323049 0 0 0-.12305.12695l-.0371.72266a.1323049.1323049 0 1 0 .26367.0137l.0371-.72266a.1323049.1323049 0 0 0-.14062-.14062zM-712.03125 278.91211c-.12826-.001-.1781.0756-.22266.125-.008-.006-.0127-.0114-.0215-.0176-.0601-.0423-.13439-.0977-.25195-.084-.17885.021-.28225.16047-.33594.28711-.0632.14927-.046.31538-.0293.45898.0167.14361.043.26172.043.26172a.13241252.13241252 0 1 0 .25781-.0605c0 0-.0243-.10379-.0391-.23047-.0147-.12667-.008-.27931.0117-.32617.0267-.063.097-.12586.12305-.1289-.0189.002.0279.0106.0684.0391.0202.0142.0387.0293.0547.043.016.0136.0199.0198.043.0371.00067.0005.0617.0253.0625.0254.00042.00006.0269.002.0273.002.00045-.00003.0166-.002.0234-.004.0272-.006.0404-.0164.0508-.0234.0208-.014.0312-.0231.041-.0332.0197-.0203.037-.0416.0547-.0605.0354-.0378.0798-.0445.0371-.0449.0177.00021.0451.0101.0781.0391.033.029.066.0746.0879.11523.0245.0455.0479.19372.0488.31836.00093.12464-.01.22656-.01.22656a.13254234.13254234 0 1 0 .26367.0273c0 0 .0108-.11505.01-.25586-.001-.14081-.004-.30539-.0781-.44336-.035-.065-.0826-.13146-.14649-.1875-.0639-.056-.14958-.10431-.25195-.10547z" color="#000" font-family="sans-serif" font-weight="400" overflow="visible" white-space="normal" style="line-height:normal;font-variant-ligatures:normal;font-variant-position:normal;font-variant-caps:normal;font-variant-numeric:normal;font-variant-alternates:normal;font-feature-settings:normal;text-indent:0;text-align:start;text-decoration-line:none;text-decoration-style:solid;text-decoration-color:#000;text-transform:none;text-orientation:mixed;shape-padding:0;isolation:auto;mix-blend-mode:normal"/><path d="m -712.26172,279.06055 a 0.1323049,0.1323049 0 0 0 -0.12305,0.14062 l 0.0371,0.72266 a 0.1323049,0.1323049 0 1 0 0.26368,-0.0137 l -0.0371,-0.72266 a 0.1323049,0.1323049 0 0 0 -0.14063,-0.12695 z" color="#000" font-family="sans-serif" font-weight="400" overflow="visible" white-space="normal" style="line-height:normal;font-variant-ligatures:normal;font-variant-position:normal;font-variant-caps:normal;font-variant-numeric:normal;font-variant-alternates:normal;font-feature-settings:normal;text-indent:0;text-align:start;text-decoration-line:none;text-decoration-style:solid;text-decoration-color:#000;text-transform:none;text-orientation:mixed;shape-padding:0;isolation:auto;mix-blend-mode:normal"/><path d="m -2034.6504,-36.394531 c -0.3212,-0.0052 -0.5665,0.155609 -0.7734,0.267578 -0.1429,0.07748 -0.1639,0.101259 -0.252,0.162109 -0.1115,-0.04158 -0.1508,-0.06919 -0.3398,-0.117187 -0.3356,-0.0858 -0.7449,-0.221411 -1.209,0.03711 -0.6942,0.385172 -0.9858,1.171862 -0.8711,1.904297 a 0.50004998,0.50004998 0 0 0 0,0.0078 c 0.1141,0.727105 0.6655,1.239559 1.1426,1.667968 0.477,0.42841 0.9316,0.730469 0.9316,0.730469 a 0.50004998,0.50004998 0 0 0 0.5606,-0.0078 c 0,0 0.4956,-0.338359 1.0117,-0.818359 0.516,-0.479924 1.1133,-1.059221 1.2031,-1.845703 0.043,-0.379994 -0.044,-0.757335 -0.2148,-1.099609 -0.1709,-0.342426 -0.4362,-0.668943 -0.8418,-0.820313 -0.1251,-0.04668 -0.2406,-0.06662 -0.3477,-0.06836 z m 0.029,1.03125 c 0.083,0.04443 0.1895,0.142698 0.2676,0.298828 0.088,0.176882 0.1272,0.398237 0.1113,0.539062 -0.026,0.226016 -0.4317,0.809229 -0.8867,1.232422 -0.313,0.291024 -0.4572,0.382634 -0.6191,0.501953 -0.1516,-0.109228 -0.2655,-0.174139 -0.5391,-0.419922 -0.4168,-0.374173 -0.7988,-0.890773 -0.8281,-1.078124 h 0.01 c -0.043,-0.271749 0.1745,-0.771001 0.3691,-0.878907 -0.06,0.03402 0.2217,-0.0041 0.4727,0.05859 0.2509,0.06425 0.4648,0.148437 0.4648,0.148437 a 0.50004998,0.50004998 0 0 0 0.502,-0.05859 l 0.016,-0.01563 c 0.015,-0.01134 0.1565,-0.11582 0.3398,-0.214844 0.1443,-0.07824 0.3037,-0.09181 0.3223,-0.113281 z" color="#000" font-family="sans-serif" font-weight="400" overflow="visible" transform="matrix(.26458 0 0 .26458 -175.115 288.533)" white-space="normal" style="line-height:normal;font-variant-ligatures:normal;font-variant-position:normal;font-variant-caps:normal;font-variant-numeric:normal;font-variant-alternates:normal;font-feature-settings:normal;text-indent:0;text-align:start;text-decoration-line:none;text-decoration-style:solid;text-decoration-color:#000;text-transform:none;text-orientation:mixed;shape-padding:0;isolation:auto;mix-blend-mode:normal"/><path d="M-711.34375 279.9082c-1.53676.0262-3.40238.0198-5.02734.0117a.13230489.13230489 0 0 0-.008 0c-.11855-.00059-.21707.0568-.29101.125-.0739.0682-.12915.14967-.16797.22852-.0722.14658-.0691.31927-.0625.46679.007.14753.0273.26758.0273.26758a.13230489.13230489 0 0 0 .0606.0918c0 0 .17464.10916.39844.21484.22379.10569.48945.21731.73047.20313.2284-.0135.39322-.15763.53711-.27344.14388-.1158.26574-.20388.38281-.20703.12671-.004.25782.0762.41211.18359.15428.10743.32867.24242.55664.26172.25835.0219.48393-.0833.68945-.17383.20553-.0905.39079-.1671.5625-.15429.10101.008.21375.0774.3457.16406.13196.0867.28555.19169.48438.1875.21225-.005.42818-.12091.60937-.22656.1812-.10566.32227-.20899.32227-.20899a.13230489.13230489 0 0 0 .0527-.10351c0 0 .003-.11599-.008-.25586-.0108-.13987-.0266-.3012-.10351-.4336-.0463-.0796-.10863-.16612-.18946-.23828-.0808-.0722-.18746-.13302-.31445-.13086zm.006.26368c.0367-.00063.0822.0193.13281.0645.0506.0452.10069.11186.13672.17383.028.0482.0587.19742.0684.32226.007.0875.004.12188.004.16016-.0363.0263-.10424.0789-.24024.1582-.16615.0969-.37686.18656-.48047.18945-.0979.002-.20683-.0578-.33593-.14257-.12911-.0848-.27571-.19248-.47071-.20704-.25819-.0193-.48427.0854-.68945.17579-.20518.0903-.38935.16685-.56055.15234-.1301-.011-.26828-.10518-.42578-.21484-.1575-.10967-.3378-.23695-.57031-.23047-.22973.006-.39825.1472-.54297.26367-.14472.11647-.2688.2079-.38672.21484-.13332.008-.39275-.0791-.60156-.17773-.17733-.0837-.27674-.14599-.31641-.16992-.005-.0373-.0132-.0809-.0176-.17774-.006-.1309.009-.28658.0332-.33594.026-.0528.0686-.11098.11133-.15039.0427-.0394.0812-.0568.10937-.0566 1.62703.008 3.49942.0146 5.04297-.0117zM-710.45117 282.28125c-2.07525.0273-4.59585.0201-6.78906.0117-.0567-.00054-.14345.002-.19803.0333-.18757.0548-.30066.1895-.38395.32022-.0984.15444-.093.34212-.084.49805.009.15594.0352.2832.0352.2832.009.0402.0353.0741.0723.0918 0 0 .23475.11375.53321.22266.29845.10891.65488.21846.94921.20508.27651-.0126.49314-.15257.6875-.27344.19437-.12088.36613-.2226.55664-.22656.20156-.004.38877.0888.59766.20117.20889.11239.43716.24538.7168.26367.32373.0212.61914-.0834.89648-.17773.27734-.0944.53636-.17886.79297-.16407.16334.009.32248.0896.5.17969.17752.0901.37595.18944.61524.18555.25514-.004.54766-.11776.78906-.22657.2414-.1088.42773-.21875.42773-.21875.0395-.0226.0645-.0639.0664-.10937 0 0 .003-.12182-.0117-.26953-.0148-.14772-.0394-.32373-.14258-.46094-.12464-.16566-.33619-.37297-.62695-.36914zm.002.26367c.15124-.002.31652.13598.41406.26563.0385.0512.077.19778.0899.32617.009.087.006.11958.006.16016-.0475.0267-.14532.0849-.33399.16992-.22824.10287-.5129.20227-.68359.20508-.1613.003-.31538-.0695-.49024-.15821-.17485-.0887-.36924-.19538-.60546-.20898-.32367-.0187-.6175.0854-.89454.17969-.27704.0942-.53688.17889-.79296.1621-.2037-.0133-.39547-.11643-.60743-.23046-.21195-.11404-.44714-.2385-.73046-.23243-.27761.006-.49426.14424-.68946.26563-.19519.12139-.36958.22567-.56054.23437-.21095.01-.56218-.0872-.84766-.1914-.24925-.091-.39804-.16146-.44531-.1836-.007-.0392-.0158-.0815-.0215-.17968-.008-.13447.0111-.28991.043-.33985.0696-.10927.21751-.23096.3457-.23047 2.1961.008 4.72246.0138 6.80469-.0137z" color="#000" font-family="sans-serif" font-weight="400" overflow="visible" white-space="normal" style="line-height:normal;font-variant-ligatures:normal;font-variant-position:normal;font-variant-caps:normal;font-variant-numeric:normal;font-variant-alternates:normal;font-feature-settings:normal;text-indent:0;text-align:start;text-decoration-line:none;text-decoration-style:solid;text-decoration-color:#000;text-transform:none;text-orientation:mixed;shape-padding:0;isolation:auto;mix-blend-mode:normal"/><path d="M-716.60938 281.15039l-.008 1.29102.26367.002.008-1.29102zM-711.0332 281.14453l-.26368.0137.0703 1.26368.26367-.0156zM-717.58398 283.51367c0 0-.044.25794-.0645.57227-.0204.31433-.0267.68289.0899.95117.0376.0867.0918.19188.16992.28125.0781.0894.19765.17424.34375.15234 2.20219-.3301 4.67968.13474 6.55273.0391.1516-.008.26102-.10806.33399-.21094.073-.10288.12048-.21919.15625-.3125.0971-.2533.0997-.59817.0879-.89258-.0118-.29441-.0449-.53516-.0449-.53516l-.26172.0371c0 0 .0317.2291.043.50977.0113.28067-.005.61628-.0703.78711-.033.0861-.0761.18489-.125.2539-.0489.069-.0925.0975-.13281.0996-1.81643.0928-4.31177-.37682-6.57812-.0371-.0236.004-.057-.011-.10547-.0664-.0485-.0554-.0943-.14029-.125-.21094-.0756-.17414-.0897-.52959-.0703-.82812.0194-.29854.0625-.54297.0625-.54297z" color="#000" font-family="sans-serif" font-weight="400" overflow="visible" white-space="normal" style="line-height:normal;font-variant-ligatures:normal;font-variant-position:normal;font-variant-caps:normal;font-variant-numeric:normal;font-variant-alternates:normal;font-feature-settings:normal;text-indent:0;text-align:start;text-decoration-line:none;text-decoration-style:solid;text-decoration-color:#000;text-transform:none;text-orientation:mixed;shape-padding:0;isolation:auto;mix-blend-mode:normal"/><path d="M-710.50391 284.83398a.06615245.06615245 0 0 0-.0293.01l-.25977.14648a.06615245.06615245 0 1 0 .0644.11524l.25977-.14649a.06615245.06615245 0 0 0-.0352-.125zM-710.50977 284.55664a.06615245.06615245 0 0 0-.0234.008l-.53125.28907a.06640294.06640294 0 1 0 .0625.11718l.5332-.28906a.06615245.06615245 0 0 0-.041-.125zM-710.50391 284.27148a.06615245.06615245 0 0 0-.0293.01l-.63477.35352a.06615245.06615245 0 1 0 .0644.11523l.63477-.35352a.06615245.06615245 0 0 0-.0352-.125zM-710.50586 284.00586a.06615245.06615245 0 0 0-.0234.006l-.63086.29101a.06615245.06615245 0 1 0 .0547.11915l.63281-.28907a.06615245.06615245 0 0 0-.0332-.12695zM-716.99414 282.81836c-.16018.0151-.27888.10047-.34961.19922a.0664112.0664112 0 0 0 .10742.0781c.0522-.0728.13267-.13307.25391-.14453a.06666306.06666306 0 1 0-.0117-.13281zM-716.24219 280.3457a.06615245.06615245 0 0 0-.0156.006c-.11008.0487-.17584.13881-.20313.22656a.06642223.06642223 0 1 0 .12696.0391c.018-.0578.055-.11183.1289-.14453a.06615245.06615245 0 0 0-.0371-.12696zM-713.8418 277.89258c-.0789 0-.14805.0429-.1914.0898-.0434.047-.0709.0999-.0918.1543-.0419.10871-.0586.22254-.0586.31445 0 .21676.17777.39453.39453.39453.21676 0 .39648-.17778.39648-.39453 0-.12485-.0559-.2384-.1289-.34375-.073-.10535-.16251-.21484-.32032-.21484zm.002.26758c-.009.001.0531.0297.10156.0996.0494.0713.0801.171.0801.1914 0 .0738-.0571.13086-.13086.13086-.0738 0-.13086-.0571-.13086-.13086 0-.0533.0149-.15281.041-.2207.0131-.034.0297-.0601.0391-.0703zM-715.35742 277.87695c-.0789 0-.14806.0409-.19141.0879-.0434.047-.0709.0999-.0918.1543-.0419.10871-.0586.22255-.0586.31445 0 .21676.17777.39649.39453.39649.21676 0 .39649-.17973.39649-.39649 0-.12485-.0559-.23644-.12891-.34179-.073-.10536-.1625-.21485-.32031-.21485zm0 .26367c-.0126 0 .0542.0303.10351.10157.0494.0713.0801.17101.0801.1914 0 .0738-.0571.13086-.13086.13086-.0738 0-.1289-.0571-.1289-.13086 0-.0533.0149-.15086.041-.21875.0131-.0339.0277-.0601.0371-.0703.009-.0102.004-.004-.002-.004zM-712.28125 277.89258c-.15781 0-.24929.10949-.32227.21484-.073.10535-.12695.2189-.12695.34375 0 .21675.17777.39453.39453.39453.21676 0 .39453-.17777.39453-.39453 0-.0919-.0167-.20574-.0586-.31445-.0209-.0544-.0465-.10734-.0898-.1543-.0434-.0469-.11251-.0898-.19141-.0898zm-.004.26953c.009.0106.0263.0351.0391.0684.0262.0679.041.16735.041.2207 0 .0738-.0571.13086-.13086.13086-.0738 0-.13086-.0571-.13086-.13086 0-.0204.0307-.12015.0801-.1914.0475-.0686.10797-.0955.10156-.0977z" color="#000" font-family="sans-serif" font-weight="400" overflow="visible" white-space="normal" style="line-height:normal;font-variant-ligatures:normal;font-variant-position:normal;font-variant-caps:normal;font-variant-numeric:normal;font-variant-alternates:normal;font-feature-settings:normal;text-indent:0;text-align:start;text-decoration-line:none;text-decoration-style:solid;text-decoration-color:#000;text-transform:none;text-orientation:mixed;shape-padding:0;isolation:auto;mix-blend-mode:normal"/></g></svg>