<svg xmlns="http://www.w3.org/2000/svg" viewBox="0 0 64 64"><path fill="#222" d="M39.005,36.85H30.6A17.9,17.9,0,0,1,12.727,18.973V10.315a1.5,1.5,0,0,1,3,0v8.658A14.893,14.893,0,0,0,30.6,33.85h8.4a1.5,1.5,0,0,1,0,3Z"/><path fill="#222" d="M31.575,44.28a1.5,1.5,0,0,1-1.06-2.56l7.429-7.43a1.5,1.5,0,1,1,2.121,2.121l-7.429,7.43A1.5,1.5,0,0,1,31.575,44.28Z"/><path fill="#222" d="M39.005,36.85a1.5,1.5,0,0,1-1.061-.439L30.515,28.98a1.5,1.5,0,1,1,2.121-2.121l7.429,7.431a1.5,1.5,0,0,1-1.06,2.56Z"/><path fill="#222" d="M49.773,55.185H14.227a1.5,1.5,0,0,1-1.5-1.5V39.35a1.5,1.5,0,0,1,3,0V52.185H48.273V11.815H24.159a1.5,1.5,0,0,1,0-3H49.773a1.5,1.5,0,0,1,1.5,1.5v43.37A1.5,1.5,0,0,1,49.773,55.185Z"/></svg>