<?xml version="1.0"?><svg fill="#000000" xmlns="http://www.w3.org/2000/svg" viewBox="0 0 128 128" width="64px" height="64px">    <path d="M 33.5 11 C 26.3 11 20.5 16.8 20.5 24 L 20.5 104 C 20.5 111.2 26.3 117 33.5 117 L 94.5 117 C 101.7 117 107.5 111.2 107.5 104 L 107.5 24 C 107.5 16.8 101.7 11 94.5 11 L 33.5 11 z M 33.5 17 L 94.5 17 C 98.4 17 101.5 20.1 101.5 24 L 101.5 104 C 101.5 107.9 98.4 111 94.5 111 L 33.5 111 C 29.6 111 26.5 107.9 26.5 104 L 26.5 24 C 26.5 20.1 29.6 17 33.5 17 z M 40.5 33 C 38.8 33 37.5 34.3 37.5 36 C 37.5 37.7 38.8 39 40.5 39 L 85.5 39 C 87.2 39 88.5 37.7 88.5 36 C 88.5 34.3 87.2 33 85.5 33 L 40.5 33 z M 40.5 48 C 38.8 48 37.5 49.3 37.5 51 C 37.5 52.7 38.8 54 40.5 54 L 85.5 54 C 87.2 54 88.5 52.7 88.5 51 C 88.5 49.3 87.2 48 85.5 48 L 40.5 48 z M 40.5 63 C 38.8 63 37.5 64.3 37.5 66 C 37.5 67.7 38.8 69 40.5 69 L 61 69 C 62.7 69 64 67.7 64 66 C 64 64.3 62.7 63 61 63 L 40.5 63 z M 81 93.074219 C 80.225 93.074219 79.450391 93.350391 78.900391 93.900391 C 78.300391 94.400391 78 95.2 78 96 C 78 96.8 78.300391 97.599609 78.900391 98.099609 C 79.500391 98.699609 80.2 99 81 99 C 81.8 99 82.599609 98.699609 83.099609 98.099609 C 83.699609 97.499609 84 96.8 84 96 C 84 95.2 83.699609 94.400391 83.099609 93.900391 C 82.549609 93.350391 81.775 93.074219 81 93.074219 z"/></svg>