<?xml version="1.0" encoding="UTF-8" standalone="no"?>
<svg xmlns:dc="http://purl.org/dc/elements/1.1/" xmlns:cc="http://creativecommons.org/ns#" xmlns:rdf="http://www.w3.org/1999/02/22-rdf-syntax-ns#" xmlns:svg="http://www.w3.org/2000/svg" xmlns="http://www.w3.org/2000/svg" xmlns:sodipodi="http://sodipodi.sourceforge.net/DTD/sodipodi-0.dtd" xmlns:inkscape="http://www.inkscape.org/namespaces/inkscape" width="100" height="100" viewBox="0 0 100 100" id="svg13714" version="1.1" inkscape:version="0.91 r13725" sodipodi:docname="shield_protection_security_secure_user_login_authentication.svg">
  <defs id="defs13716"/>
  <sodipodi:namedview id="base" pagecolor="#ffffff" bordercolor="#666666" borderopacity="1.0" inkscape:pageopacity="0.0" inkscape:pageshadow="2" inkscape:zoom="2" inkscape:cx="-14.651007" inkscape:cy="46.050964" inkscape:document-units="px" inkscape:current-layer="layer1" showgrid="false" units="px" inkscape:window-width="1366" inkscape:window-height="716" inkscape:window-x="-8" inkscape:window-y="-8" inkscape:window-maximized="1"/>
  
  <g inkscape:label="Layer 1" inkscape:groupmode="layer" id="layer1" transform="translate(0,-952.36216)">
    <g id="g15282" transform="matrix(1.999997,0,0,1.999997,-851.92108,2187.0688)">
      <g id="g15284" transform="matrix(1.7070676,0,0,1.6956166,-657.36755,1016.8629)">
        <path inkscape:connector-curvature="0" id="path15287" d="m 649.31626,-958.47776 a 0.44062045,0.44062045 0 0 0 -0.36134,0.19804 c -0.80201,1.17105 -3.34412,2.16658 -6.25255,2.18379 a 0.44062045,0.44062045 0 0 0 -0.0172,0 0.44062045,0.44062045 0 0 0 -0.0572,-0.006 0.44062045,0.44062045 0 0 0 -0.43338,0.35112 c 0,0 -0.43958,1.99028 -0.65979,4.39757 -0.22022,2.40735 -0.26562,5.2264 0.70095,7.04652 0.72409,1.36349 2.4373,2.45939 3.96674,3.29359 1.41462,0.77155 2.58134,1.23848 2.76493,1.31122 a 0.44062045,0.44062045 0 0 0 0.29159,0.0921 0.44062045,0.44062045 0 0 0 0.29502,-0.0944 0.44062045,0.44062045 0 0 0 0.002,0 c 0.19114,-0.0756 1.35206,-0.53902 2.7615,-1.30774 1.52943,-0.8342 3.24035,-1.9301 3.96445,-3.29359 0.96657,-1.82012 0.92116,-4.63917 0.70094,-7.04652 -0.22022,-2.40729 -0.65978,-4.39757 -0.65978,-4.39757 a 0.44062045,0.44062045 0 0 0 -0.44482,-0.35112 0.44062045,0.44062045 0 0 0 -0.0366,0 c -2.79456,-0.0112 -5.24962,-0.95391 -6.10618,-2.09171 a 0.44062045,0.44062045 0 0 0 -0.41966,-0.28899 z m -0.008,1.14777 c 1.22825,1.30432 3.58517,2.03767 6.2171,2.10209 0.0882,0.41949 0.39447,1.91996 0.58089,3.95781 0.21454,2.3451 0.16979,5.09821 -0.60262,6.55265 -0.52991,0.99788 -2.13488,2.12938 -3.60882,2.93328 -1.33429,0.72775 -2.41857,1.16475 -2.63572,1.25133 -0.21716,-0.0866 -1.30143,-0.52358 -2.63572,-1.25133 -1.47394,-0.8039 -3.0789,-1.9354 -3.60882,-2.93328 -0.77241,-1.45444 -0.81714,-4.20755 -0.60262,-6.55265 0.18633,-2.03685 0.49247,-3.53608 0.58089,-3.95669 2.67762,-0.0642 5.07062,-0.79712 6.31544,-2.10321 z" style="color:#000000;font-style:normal;font-variant:normal;font-weight:normal;font-stretch:normal;font-size:medium;line-height:normal;font-family:sans-serif;text-indent:0;text-align:start;text-decoration:none;text-decoration-line:none;text-decoration-style:solid;text-decoration-color:#000000;letter-spacing:normal;word-spacing:normal;text-transform:none;direction:ltr;block-progression:tb;writing-mode:lr-tb;baseline-shift:baseline;text-anchor:start;white-space:normal;clip-rule:nonzero;display:inline;overflow:visible;visibility:visible;opacity:1;isolation:auto;mix-blend-mode:normal;color-interpolation:sRGB;color-interpolation-filters:linearRGB;solid-color:#000000;solid-opacity:1;fill:#000000;fill-opacity:1;fill-rule:nonzero;stroke:none;stroke-width:0.88166183;stroke-linecap:round;stroke-linejoin:round;stroke-miterlimit:4;stroke-dasharray:none;stroke-dashoffset:0;stroke-opacity:1;color-rendering:auto;image-rendering:auto;shape-rendering:auto;text-rendering:auto;enable-background:accumulate"/>
      </g>
    </g>
    <path style="color:#000000;font-style:normal;font-variant:normal;font-weight:normal;font-stretch:normal;font-size:medium;line-height:normal;font-family:sans-serif;text-indent:0;text-align:start;text-decoration:none;text-decoration-line:none;text-decoration-style:solid;text-decoration-color:#000000;letter-spacing:normal;word-spacing:normal;text-transform:none;direction:ltr;block-progression:tb;writing-mode:lr-tb;baseline-shift:baseline;text-anchor:start;white-space:normal;clip-rule:nonzero;display:inline;overflow:visible;visibility:visible;opacity:1;isolation:auto;mix-blend-mode:normal;color-interpolation:sRGB;color-interpolation-filters:linearRGB;solid-color:#000000;solid-opacity:1;fill:#000000;fill-opacity:1;fill-rule:nonzero;stroke:none;stroke-width:1.4997052;stroke-linecap:round;stroke-linejoin:round;stroke-miterlimit:4;stroke-dasharray:none;stroke-dashoffset:0;stroke-opacity:1;color-rendering:auto;image-rendering:auto;shape-rendering:auto;text-rendering:auto;enable-background:accumulate" d="m 50.002156,988.36187 c -4.089373,0 -7.437488,3.34759 -7.437488,7.43759 0,4.08979 3.348115,7.44134 7.437488,7.44134 4.089354,0 7.433569,-3.35155 7.433569,-7.44134 0,-4.09 -3.344215,-7.43759 -7.433569,-7.43759 z m 0,2.99999 c 2.467817,0 4.433574,1.968 4.433574,4.4376 0,2.46939 -1.965757,4.44144 -4.433574,4.44144 -2.467816,0 -4.437493,-1.97205 -4.437493,-4.44144 0,-2.4696 1.969677,-4.4376 4.437493,-4.4376 z m 11.804662,10.14464 a 1.4998529,1.4998529 0 0 0 -0.148399,0.02 1.4998529,1.4998529 0 0 0 -0.42968,0.128 1.4998529,1.4998529 0 0 0 -0.129,0.074 1.4998529,1.4998529 0 0 0 -0.124999,0.082 1.4998529,1.4998529 0 0 0 -0.1172,0.098 1.4998529,1.4998529 0 0 0 -0.484379,1.0625 1.4998529,1.4998529 0 0 0 0,0.02 l 0,10.375 -20.746049,0 0,-10.375 a 1.4998529,1.4998529 0 0 0 -0.008,-0.148 1.4998529,1.4998529 0 0 0 -0.0274,-0.148 1.4998529,1.4998529 0 0 0 -0.1602,-0.4219 1.4998529,1.4998529 0 0 0 -0.171799,-0.242 1.4998529,1.4998529 0 0 0 -0.1016,-0.11 1.4998529,1.4998529 0 0 0 -0.3711,-0.254 1.4998529,1.4998529 0 0 0 -0.136799,-0.058 1.4998529,1.4998529 0 0 0 -0.1406,-0.046 1.4998529,1.4998529 0 0 0 -0.1484,-0.032 1.4998529,1.4998529 0 0 0 -0.1484,-0.02 1.4998529,1.4998529 0 0 0 -0.1484,0 1.4998529,1.4998529 0 0 0 -0.582039,0.14 1.4998529,1.4998529 0 0 0 -0.371099,0.2538 1.4998529,1.4998529 0 0 0 -0.1992,0.2226 1.4998529,1.4998529 0 0 0 -0.203119,0.3985 1.4998529,1.4998529 0 0 0 -0.082,0.4414 1.4998529,1.4998529 0 0 0 0,0.02 l 0,11.875 a 1.4998529,1.4998529 0 0 0 0.008,0.152 1.4998529,1.4998529 0 0 0 0.0234,0.148 1.4998529,1.4998529 0 0 0 0.0352,0.144 1.4998529,1.4998529 0 0 0 0.195199,0.4024 1.4998529,1.4998529 0 0 0 0.0938,0.122 1.4998529,1.4998529 0 0 0 0.1016,0.11 1.4998529,1.4998529 0 0 0 0.1132,0.098 1.4998529,1.4998529 0 0 0 0.531259,0.2696 1.4998529,1.4998529 0 0 0 0.398439,0.054 l 23.746044,0 a 1.4998529,1.4998529 0 0 0 0.29688,-0.028 1.4998529,1.4998529 0 0 0 0.550779,-0.2342 1.4998529,1.4998529 0 0 0 0.1172,-0.09 1.4998529,1.4998529 0 0 0 0.511719,-0.8906 1.4998529,1.4998529 0 0 0 0.0234,-0.2578 l 0,-11.875 a 1.4998529,1.4998529 0 0 0 -0.1952,-0.7187 1.4998529,1.4998529 0 0 0 -0.0782,-0.124 1.4998529,1.4998529 0 0 0 -0.0938,-0.116 1.4998529,1.4998529 0 0 0 -0.33984,-0.293 1.4998529,1.4998529 0 0 0 -0.269539,-0.128 1.4998529,1.4998529 0 0 0 -0.28906,-0.078 1.4998529,1.4998529 0 0 0 -0.30078,-0.02 z" id="path15306" inkscape:connector-curvature="0"/>
  </g>

	<metadata>
		<rdf:RDF xmlns:rdf="http://www.w3.org/1999/02/22-rdf-syntax-ns#" xmlns:rdfs="http://www.w3.org/2000/01/rdf-schema#" xmlns:dc="http://purl.org/dc/elements/1.1/">
			<rdf:Description about="https://iconscout.com/legal#licenses" dc:title="shield_protection_security_secure_user_login_authentication" dc:description="shield_protection_security_secure_user_login_authentication" dc:publisher="Iconscout" dc:date="2017-06-29" dc:format="image/svg+xml" dc:language="en">
				<dc:creator>
					<rdf:Bag>
						<rdf:li>Vignesh Oviyan</rdf:li>
					</rdf:Bag>
				</dc:creator>
			</rdf:Description>
		</rdf:RDF>
    </metadata></svg>
